# xmcd
# 
# Track frame offsets:
#     150
#     17428
#     35202
#     51603
#     74083
#     89026
#     105442
#     126239
#     144664
#     162101
#     177793
# 
# Disc length: 2575
# 
# Revision: 1
# Processed by: cddbd v1.5.2PL0 Copyright (c) Steve Scherf et al.
# Submitted via: fre:ac v1.1beta1pre4
# 
DISCID=a10a0d0b
DTITLE=Zane Williams - Overnight Success
DYEAR=2013
DGENRE=Texas Country
TTITLE0=Overnight Success
TTITLE1=Sure Felt Like Goodbye
TTITLE2=On A Good Day
TTITLE3=When You've Got A Woman
TTITLE4=Damned
TTITLE5=The Simple Things
TTITLE6=Little Too Late
TTITLE7=Kissin'
TTITLE8=Hands Of A Workin' Man
TTITLE9=Tired Of Gettin' By
TTITLE10=While I Was Away
EXTD=
EXTT0=
EXTT1=
EXTT2=
EXTT3=
EXTT4=
EXTT5=
EXTT6=
EXTT7=
EXTT8=
EXTT9=
EXTT10=
PLAYORDER=
